<svg xmlns="http://www.w3.org/2000/svg" xmlns:xlink="http://www.w3.org/1999/xlink" width="100" height="100" viewBox="0 0 100 100">
  <defs>
    <clipPath id="clip-path">
      <rect id="Rect치ngulo_1" data-name="Rect치ngulo 1" width="100" height="100" transform="translate(99 255)" fill="#fff" stroke="#707070" stroke-width="1"/>
    </clipPath>
    <clipPath id="clip-path-2">
      <rect id="Rect치ngulo_23" data-name="Rect치ngulo 23" width="100" height="66.667" transform="translate(560 160)" stroke="#707070" stroke-width="0.667"/>
    </clipPath>
  </defs>
  <g id="calendar-contact.svg" transform="translate(-99 -255)" clip-path="url(#clip-path)">
    <g id="calendar-contact" transform="translate(-461 111.667)" clip-path="url(#clip-path-2)">
      <g id="calendar" transform="translate(575.517 160)">
        <path id="Trazado_64" data-name="Trazado 64" d="M49.425,27.586a19.54,19.54,0,1,0,19.54,19.54,19.54,19.54,0,0,0-19.54-19.54Zm0,36.781A17.241,17.241,0,1,1,66.667,47.126,17.241,17.241,0,0,1,49.425,64.367Zm0,0" stroke="#707070" stroke-width="0.144"/>
        <path id="Trazado_65" data-name="Trazado 65" d="M50.575,43.89V36.781h-2.3V43.89a3.445,3.445,0,0,0-2.087,2.087H41.379v2.3h4.809a3.44,3.44,0,1,0,4.386-4.386Zm-1.149,4.386a1.149,1.149,0,1,1,1.149-1.149,1.149,1.149,0,0,1-1.149,1.149Zm0,0" stroke="#707070" stroke-width="0.144"/>
        <path id="Trazado_66" data-name="Trazado 66" d="M34.483,45.977h2.3v2.3h-2.3Zm0,0" stroke="#707070" stroke-width="0.144"/>
        <path id="Trazado_67" data-name="Trazado 67" d="M48.276,59.77h2.3v2.3h-2.3Zm0,0" stroke="#707070" stroke-width="0.144"/>
        <path id="Trazado_68" data-name="Trazado 68" d="M62.067,45.977h2.3v2.3h-2.3Zm0,0" stroke="#707070" stroke-width="0.144"/>
        <path id="Trazado_69" data-name="Trazado 69" d="M48.276,32.184h2.3v2.3h-2.3Zm0,0" stroke="#707070" stroke-width="0.144"/>
        <path id="Trazado_70" data-name="Trazado 70" d="M2.3,49.425V16.092H55.172V26.437h2.3V10.345A5.754,5.754,0,0,0,51.724,4.6H43.678V3.448a3.448,3.448,0,0,0-6.9,0V4.6H20.689V3.448a3.448,3.448,0,0,0-6.9,0V4.6H5.747A5.754,5.754,0,0,0,0,10.345V49.425a5.754,5.754,0,0,0,5.747,5.747H28.733v-2.3H5.747A3.449,3.449,0,0,1,2.3,49.425ZM39.081,3.448a1.149,1.149,0,1,1,2.3,0v4.6a1.149,1.149,0,1,1-2.3,0Zm-22.989,0a1.149,1.149,0,1,1,2.3,0v4.6a1.149,1.149,0,1,1-2.3,0ZM5.747,6.9h8.046V8.046a3.448,3.448,0,0,0,6.9,0V6.9H36.781V8.046a3.448,3.448,0,0,0,6.9,0V6.9h8.046a3.449,3.449,0,0,1,3.448,3.447v3.449H2.3V10.345A3.449,3.449,0,0,1,5.747,6.9Zm0,0" stroke="#707070" stroke-width="0.144"/>
        <path id="Trazado_71" data-name="Trazado 71" d="M16.092,25.287a2.3,2.3,0,0,0-2.3-2.3h-4.6a2.3,2.3,0,0,0-2.3,2.3v4.6a2.3,2.3,0,0,0,2.3,2.3h4.6a2.3,2.3,0,0,0,2.3-2.3Zm-6.9,4.6v-4.6h4.6v4.6Zm0,0" stroke="#707070" stroke-width="0.144"/>
        <path id="Trazado_72" data-name="Trazado 72" d="M27.586,25.287a2.3,2.3,0,0,0-2.3-2.3h-4.6a2.3,2.3,0,0,0-2.3,2.3v4.6a2.3,2.3,0,0,0,2.3,2.3h4.6a2.3,2.3,0,0,0,2.3-2.3Zm-6.9,4.6v-4.6h4.6v4.6Zm0,0" stroke="#707070" stroke-width="0.144"/>
        <path id="Trazado_73" data-name="Trazado 73" d="M39.081,28.733V25.287a2.3,2.3,0,0,0-2.3-2.3h-4.6a2.3,2.3,0,0,0-2.3,2.3v4.6a2.3,2.3,0,0,0,2.3,2.3h2.3v-2.3h-2.3v-4.6h4.6v3.448Zm0,0" stroke="#707070" stroke-width="0.144"/>
        <path id="Trazado_74" data-name="Trazado 74" d="M13.793,36.781h-4.6a2.3,2.3,0,0,0-2.3,2.3v4.6a2.3,2.3,0,0,0,2.3,2.3h4.6a2.3,2.3,0,0,0,2.3-2.3v-4.6a2.3,2.3,0,0,0-2.3-2.3Zm-4.6,6.9v-4.6h4.6v4.6Zm0,0" stroke="#707070" stroke-width="0.144"/>
        <path id="Trazado_75" data-name="Trazado 75" d="M25.287,36.781h-4.6a2.3,2.3,0,0,0-2.3,2.3v4.6a2.3,2.3,0,0,0,2.3,2.3h4.6a2.3,2.3,0,0,0,2.3-2.3v-4.6a2.3,2.3,0,0,0-2.3-2.3Zm-4.6,6.9v-4.6h4.6v4.6Zm0,0" stroke="#707070" stroke-width="0.144"/>
        <path id="Trazado_76" data-name="Trazado 76" d="M50.575,26.437V25.287a2.3,2.3,0,0,0-2.3-2.3h-4.6a2.3,2.3,0,0,0-2.3,2.3v1.149h2.3V25.287h4.6v1.149Zm0,0" stroke="#707070" stroke-width="0.144"/>
      </g>
    </g>
  </g>
</svg>
