<svg xmlns="http://www.w3.org/2000/svg" xmlns:xlink="http://www.w3.org/1999/xlink" width="150" height="100" viewBox="0 0 150 100">
  <defs>
    <clipPath id="clip-path">
      <rect id="Rectángulo_23" data-name="Rectángulo 23" width="150" height="100" transform="translate(840 240)" stroke="#707070" stroke-width="1"/>
    </clipPath>
  </defs>
  <g id="calendar-contact" transform="translate(-840 -240)" clip-path="url(#clip-path)">
    <g id="calendar" transform="translate(863.276 240)">
      <path id="Trazado_64" data-name="Trazado 64" d="M74.138,41.379a29.31,29.31,0,1,0,29.31,29.31A29.311,29.311,0,0,0,74.138,41.379Zm0,55.172A25.862,25.862,0,1,1,100,70.69,25.862,25.862,0,0,1,74.138,96.552Zm0,0" stroke="#707070" stroke-width="0.216"/>
      <path id="Trazado_65" data-name="Trazado 65" d="M75.862,65.835V55.172H72.414V65.835a5.167,5.167,0,0,0-3.131,3.131H62.069v3.448h7.214a5.16,5.16,0,1,0,6.579-6.579Zm-1.724,6.579a1.724,1.724,0,1,1,1.724-1.724A1.724,1.724,0,0,1,74.138,72.414Zm0,0" stroke="#707070" stroke-width="0.216"/>
      <path id="Trazado_66" data-name="Trazado 66" d="M51.724,68.966h3.448v3.448H51.724Zm0,0" stroke="#707070" stroke-width="0.216"/>
      <path id="Trazado_67" data-name="Trazado 67" d="M72.414,89.655h3.448V93.1H72.414Zm0,0" stroke="#707070" stroke-width="0.216"/>
      <path id="Trazado_68" data-name="Trazado 68" d="M93.1,68.966h3.448v3.448H93.1Zm0,0" stroke="#707070" stroke-width="0.216"/>
      <path id="Trazado_69" data-name="Trazado 69" d="M72.414,48.276h3.448v3.448H72.414Zm0,0" stroke="#707070" stroke-width="0.216"/>
      <path id="Trazado_70" data-name="Trazado 70" d="M3.448,74.138v-50h79.31V39.655h3.448V15.517A8.631,8.631,0,0,0,77.586,6.9H65.517V5.172a5.172,5.172,0,0,0-10.345,0V6.9H31.034V5.172a5.172,5.172,0,1,0-10.345,0V6.9H8.621A8.631,8.631,0,0,0,0,15.517V74.138a8.631,8.631,0,0,0,8.621,8.621H43.1V79.31H8.621A5.173,5.173,0,0,1,3.448,74.138ZM58.621,5.172a1.724,1.724,0,0,1,3.448,0v6.9a1.724,1.724,0,1,1-3.448,0Zm-34.483,0a1.724,1.724,0,0,1,3.448,0v6.9a1.724,1.724,0,1,1-3.448,0ZM8.621,10.345H20.69v1.724a5.172,5.172,0,1,0,10.345,0V10.345H55.172v1.724a5.172,5.172,0,0,0,10.345,0V10.345H77.586a5.173,5.173,0,0,1,5.172,5.172V20.69H3.448V15.517A5.173,5.173,0,0,1,8.621,10.345Zm0,0" stroke="#707070" stroke-width="0.216"/>
      <path id="Trazado_71" data-name="Trazado 71" d="M24.138,37.931a3.448,3.448,0,0,0-3.448-3.448h-6.9a3.448,3.448,0,0,0-3.448,3.448v6.9a3.448,3.448,0,0,0,3.448,3.448h6.9a3.448,3.448,0,0,0,3.448-3.448Zm-10.345,6.9v-6.9h6.9v6.9Zm0,0" stroke="#707070" stroke-width="0.216"/>
      <path id="Trazado_72" data-name="Trazado 72" d="M41.379,37.931a3.448,3.448,0,0,0-3.448-3.448h-6.9a3.448,3.448,0,0,0-3.448,3.448v6.9a3.448,3.448,0,0,0,3.448,3.448h6.9a3.448,3.448,0,0,0,3.448-3.448Zm-10.345,6.9v-6.9h6.9v6.9Zm0,0" stroke="#707070" stroke-width="0.216"/>
      <path id="Trazado_73" data-name="Trazado 73" d="M58.621,43.1V37.931a3.448,3.448,0,0,0-3.448-3.448h-6.9a3.448,3.448,0,0,0-3.448,3.448v6.9a3.448,3.448,0,0,0,3.448,3.448h3.448V44.828H48.276v-6.9h6.9V43.1Zm0,0" stroke="#707070" stroke-width="0.216"/>
      <path id="Trazado_74" data-name="Trazado 74" d="M20.69,55.172h-6.9a3.448,3.448,0,0,0-3.448,3.448v6.9a3.448,3.448,0,0,0,3.448,3.448h6.9a3.448,3.448,0,0,0,3.448-3.448v-6.9A3.448,3.448,0,0,0,20.69,55.172Zm-6.9,10.345v-6.9h6.9v6.9Zm0,0" stroke="#707070" stroke-width="0.216"/>
      <path id="Trazado_75" data-name="Trazado 75" d="M37.931,55.172h-6.9a3.448,3.448,0,0,0-3.448,3.448v6.9a3.448,3.448,0,0,0,3.448,3.448h6.9a3.448,3.448,0,0,0,3.448-3.448v-6.9A3.448,3.448,0,0,0,37.931,55.172Zm-6.9,10.345v-6.9h6.9v6.9Zm0,0" stroke="#707070" stroke-width="0.216"/>
      <path id="Trazado_76" data-name="Trazado 76" d="M75.862,39.655V37.931a3.448,3.448,0,0,0-3.448-3.448h-6.9a3.448,3.448,0,0,0-3.448,3.448v1.724h3.448V37.931h6.9v1.724Zm0,0" stroke="#707070" stroke-width="0.216"/>
    </g>
  </g>
</svg>
