<svg xmlns="http://www.w3.org/2000/svg" xmlns:xlink="http://www.w3.org/1999/xlink" width="50" height="50" viewBox="0 0 50 50">
  <defs>
    <clipPath id="clip-path">
      <rect id="Rectángulo_5" data-name="Rectángulo 5" width="50" height="50" transform="translate(513 206)" fill="#fff" stroke="#707070" stroke-width="1"/>
    </clipPath>
  </defs>
  <g id="contact" transform="translate(-513 -206)" clip-path="url(#clip-path)">
    <g id="_005-contact" data-name="005-contact" transform="translate(513 206)">
      <g id="Grupo_15" data-name="Grupo 15">
        <g id="Grupo_14" data-name="Grupo 14">
          <path id="Trazado_15" data-name="Trazado 15" d="M38.085,42.046l-8.429-5.619a.868.868,0,0,0-1.161.188L26.041,39.77a2.631,2.631,0,0,1-3.371.695l-.454-.249c-1.637-.893-3.675-2-7.721-6.05s-5.157-6.084-6.05-7.721l-.25-.454a2.63,2.63,0,0,1,.695-3.37l3.154-2.455A.867.867,0,0,0,12.233,19l-5.618-8.43a.864.864,0,0,0-1.161-.262L1.927,12.428a3.393,3.393,0,0,0-1.553,2C-.784,18.647.19,26.033,11.408,37.252s18.6,12.195,22.823,11.036a3.393,3.393,0,0,0,2-1.554l2.114-3.527A.862.862,0,0,0,38.085,42.046Z" fill="#fff"/>
          <path id="Trazado_16" data-name="Trazado 16" d="M49.858,1.48a.486.486,0,0,0-.349-.142H12.089a.486.486,0,0,0-.491.491v13l2.122,3.183a2.66,2.66,0,0,1-.578,3.562L9.991,24.03a.852.852,0,0,0-.23,1.091l.257.469A22.518,22.518,0,0,0,13,29.934H49.509a.488.488,0,0,0,.491-.48V1.829A.485.485,0,0,0,49.858,1.48ZM24.484,17.722v0l-9.148,9.8A.893.893,0,0,1,14.029,26.3l9.148-9.8a.893.893,0,1,1,1.307,1.218Zm6.315-.7a2.96,2.96,0,0,1-1.786-.589L14.086,5.11a.895.895,0,1,1,1.084-1.424l14.92,11.319a1.2,1.2,0,0,0,1.416,0L46.432,3.687a.893.893,0,1,1,1.08,1.424L32.585,16.429A2.96,2.96,0,0,1,30.8,17.019ZM47.582,27.563a.893.893,0,0,1-1.263-.044l-9.148-9.8A.893.893,0,0,1,38.479,16.5l9.146,9.8A.893.893,0,0,1,47.582,27.563Z" fill="#fff"/>
        </g>
      </g>
    </g>
  </g>
</svg>
