<svg xmlns="http://www.w3.org/2000/svg" xmlns:xlink="http://www.w3.org/1999/xlink" width="50" height="50" viewBox="0 0 50 50">
  <defs>
    <clipPath id="clip-path">
      <rect id="Rectángulo_4" data-name="Rectángulo 4" width="50" height="50" transform="translate(433 206)" fill="#fff" stroke="#707070" stroke-width="1"/>
    </clipPath>
  </defs>
  <g id="gallery" transform="translate(-433 -206)" clip-path="url(#clip-path)">
    <g id="_004-motivational" data-name="004-motivational" transform="translate(432.973 210.464)">
      <path id="Trazado_11" data-name="Trazado 11" d="M16.1,15.406,5.384,27.46V41.071H26.61l6.151-6.92Z" fill="#fff"/>
      <path id="Trazado_12" data-name="Trazado 12" d="M3.6,27.121V4.464a.893.893,0,0,1,.893-.893H44.67V0H.027V35.714H3.6Z" fill="#fff"/>
      <path id="Trazado_13" data-name="Trazado 13" d="M34.622,34.745h0L29,41.071H50.027V37.5L41.1,27.46Z" fill="#fff"/>
      <circle id="Elipse_3" data-name="Elipse 3" cx="2.679" cy="2.679" r="2.679" transform="translate(32.17 13.393)" fill="#fff"/>
      <path id="Trazado_14" data-name="Trazado 14" d="M45.563,5.357H5.384V24.772l10.047-11.3a.921.921,0,0,1,1.334,0l17.19,19.338,6.476-7.285a.921.921,0,0,1,1.334,0l8.262,9.294V5.357ZM34.848,20.536a4.464,4.464,0,1,1,4.464-4.464A4.469,4.469,0,0,1,34.848,20.536Z" fill="#fff"/>
    </g>
  </g>
</svg>
