<svg xmlns="http://www.w3.org/2000/svg" width="40" height="40" viewBox="0 0 40 40">
  <g id="Grupo_17" data-name="Grupo 17" transform="translate(0)">
    <path id="Trazado_6" data-name="Trazado 6" d="M20,0H20A19.988,19.988,0,0,0,3.808,31.722l-2.493,7.43L9,36.695A20,20,0,1,0,20,0ZM31.642,28.243c-.482,1.362-2.4,2.492-3.925,2.822-1.045.222-2.41.4-7-1.5-5.877-2.435-9.662-8.407-9.957-8.8S8.38,17.6,8.38,14.732a6.385,6.385,0,0,1,2.045-4.867,2.906,2.906,0,0,1,2.045-.717c.248,0,.47.012.67.023.587.025.882.06,1.27.987.483,1.163,1.657,4.032,1.8,4.327a1.19,1.19,0,0,1,.085,1.083,3.456,3.456,0,0,1-.647.918c-.295.34-.575.6-.87.965-.27.318-.575.658-.235,1.245a17.752,17.752,0,0,0,3.245,4.033,14.7,14.7,0,0,0,4.69,2.893,1.265,1.265,0,0,0,1.41-.223,24.2,24.2,0,0,0,1.562-2.07,1.116,1.116,0,0,1,1.435-.435c.54.187,3.4,1.6,3.985,1.892s.975.435,1.118.682A4.981,4.981,0,0,1,31.642,28.243Z" transform="translate(0)" fill="#fff"/>
  </g>
</svg>
