<svg xmlns="http://www.w3.org/2000/svg" xmlns:xlink="http://www.w3.org/1999/xlink" width="30" height="30" viewBox="0 0 30 30"><defs><style>.a,.c{fill:#fff;stroke:#707070;}.b{clip-path:url(#a);}.c{stroke-width:0.078px;}</style><clipPath id="a"><rect class="a" width="30" height="30" transform="translate(600 3605)"/></clipPath></defs><g class="b" transform="translate(-600 -3605)"><g transform="translate(600 3605.001)"><path class="c" d="M29.291,23.222l-6.072-4.049a1.772,1.772,0,0,0-2.373.385l-1.769,2.274a.756.756,0,0,1-.969.2l-.336-.185a20.333,20.333,0,0,1-5.3-4.162,20.416,20.416,0,0,1-4.162-5.3l-.184-.336a.757.757,0,0,1,.2-.973L10.6,9.312a1.773,1.773,0,0,0,.386-2.373L6.934.867A1.763,1.763,0,0,0,4.558.332L2.018,1.857A3.582,3.582,0,0,0,.385,3.977C-.529,7.308.159,13.058,8.628,21.529c6.738,6.737,11.753,8.549,15.2,8.549a8.857,8.857,0,0,0,2.35-.307,3.578,3.578,0,0,0,2.12-1.633L29.825,25.6A1.763,1.763,0,0,0,29.291,23.222Zm-.327,1.865-1.523,2.539a2.584,2.584,0,0,1-1.525,1.182c-3.076.844-8.449.145-16.58-7.986S.505,7.317,1.35,4.241A2.588,2.588,0,0,1,2.533,2.714L5.072,1.191A.765.765,0,0,1,6.1,1.423l2.2,3.3,1.846,2.769a.769.769,0,0,1-.167,1.03L7.709,10.293a1.75,1.75,0,0,0-.463,2.246l.181.328A21.208,21.208,0,0,0,11.76,18.4a21.23,21.23,0,0,0,5.529,4.333l.328.181a1.75,1.75,0,0,0,2.246-.463l1.768-2.273a.77.77,0,0,1,1.03-.167l6.072,4.049A.764.764,0,0,1,28.964,25.087Z" transform="translate(-0.078 -0.08)"/><path class="c" d="M22.577,6.415a8.508,8.508,0,0,1,8.5,8.5.5.5,0,1,0,1,0,9.509,9.509,0,0,0-9.5-9.5.5.5,0,1,0,0,1Z" transform="translate(-5.578 -1.413)"/><path class="c" d="M22.577,10.414a5.506,5.506,0,0,1,5.5,5.5.5.5,0,1,0,1,0,6.507,6.507,0,0,0-6.5-6.5.5.5,0,1,0,0,1Z" transform="translate(-5.578 -2.413)"/><path class="c" d="M22.577,14.414a2.5,2.5,0,0,1,2.5,2.5.5.5,0,1,0,1,0,3.5,3.5,0,0,0-3.5-3.5.5.5,0,1,0,0,1Z" transform="translate(-5.578 -3.413)"/></g></g></svg>