<svg xmlns="http://www.w3.org/2000/svg" xmlns:xlink="http://www.w3.org/1999/xlink" width="35" height="32" viewBox="0 0 35 32"><defs><style>.a,.c{fill:#fff;}.a{stroke:#707070;}.b{clip-path:url(#a);}</style><clipPath id="a"><rect class="a" width="35" height="32" transform="translate(655 3392)"/></clipPath></defs><g class="b" transform="translate(-655 -3392)"><g transform="translate(655.833 3392)"><path class="c" d="M24.557,20.312a.625.625,0,1,0,.651.625A.639.639,0,0,0,24.557,20.312Zm0,0" transform="translate(-3.985 -4.065)"/><path class="c" d="M6.651,23.107.141,30.981a.6.6,0,0,0-.076.66.654.654,0,0,0,.586.353h32.03a.654.654,0,0,0,.586-.353.6.6,0,0,0-.076-.66l-6.51-7.874a.661.661,0,0,0-.51-.237h-5.7l4.869-7.33A9.673,9.673,0,0,0,27.082,10,10.225,10.225,0,0,0,16.666,0,10.225,10.225,0,0,0,6.25,10,9.674,9.674,0,0,0,8,15.541l4.869,7.33h-5.7a.662.662,0,0,0-.51.237Zm-2.431,4.95H8.157L5.935,30.744H2Zm9.474-3.937,1.785,2.687H10.853l2.222-2.687Zm5.944,0h.62l2.222,2.687H17.853Zm3.875,3.937,2.222,2.687H7.6l2.222-2.687ZM27.4,30.744l-2.222-2.687h3.937l2.222,2.687Zm.681-3.937H24.142L21.92,24.121h3.937Zm-19-11.955A8.463,8.463,0,0,1,7.552,10,8.947,8.947,0,0,1,16.666,1.25,8.947,8.947,0,0,1,25.78,10a8.465,8.465,0,0,1-1.53,4.855l-.008.011L16.666,26.27,9.09,14.864l-.007-.011Zm2.33,9.268L9.191,26.808H5.254l2.222-2.687Zm0,0" transform="translate(0 0)"/><path class="c" d="M18.7,17.185a6.384,6.384,0,0,0,6.51-6.249A6.391,6.391,0,0,0,18.7,4.687a6.391,6.391,0,0,0-6.51,6.249A6.384,6.384,0,0,0,18.7,17.185Zm0-11.248a5.113,5.113,0,0,1,5.208,5,5.108,5.108,0,0,1-5.208,5,5.107,5.107,0,0,1-5.208-5A5.113,5.113,0,0,1,18.7,5.937Zm0,0" transform="translate(-2.032 -0.938)"/><path class="c" d="M22.612,22.956a.667.667,0,0,0-.894.213L19.312,27a.611.611,0,0,0,.221.858.667.667,0,0,0,.894-.213l2.406-3.832A.611.611,0,0,0,22.612,22.956Zm0,0" transform="translate(-3.204 -4.577)"/></g></g></svg>