<svg xmlns="http://www.w3.org/2000/svg" xmlns:xlink="http://www.w3.org/1999/xlink" width="150" height="100" viewBox="0 0 150 100">
  <defs>
    <clipPath id="clip-path">
      <rect id="Rectángulo_2" data-name="Rectángulo 2" width="150" height="100" transform="translate(587 609)" fill="#fff" stroke="#707070" stroke-width="1"/>
    </clipPath>
  </defs>
  <g id="qualiy" transform="translate(-587 -609)" clip-path="url(#clip-path)">
    <g id="quality" transform="translate(612 609)">
      <path id="Trazado_5" data-name="Trazado 5" d="M91.4,89.017,78.163,57.055a1.6,1.6,0,0,0-2.949,1.221L87.183,87.17,76.266,84.007a1.6,1.6,0,0,0-1.842.763l-5.483,9.956-12.842-31A32.178,32.178,0,1,0,24.208,51.33L8.6,89.017a1.6,1.6,0,0,0,1.919,2.143L23.4,87.428l6.468,11.746a1.6,1.6,0,0,0,1.4.826l.089,0a1.6,1.6,0,0,0,1.386-.983L45.105,69.153a1.6,1.6,0,1,0-2.949-1.221l-11.1,26.795L25.575,84.77a1.6,1.6,0,0,0-1.842-.763L12.817,87.17l13.7-33.078A32.068,32.068,0,0,0,50,64.306c.956,0,1.9-.044,2.835-.126L67.264,99.015A1.6,1.6,0,0,0,68.65,100l.089,0a1.6,1.6,0,0,0,1.4-.826L76.6,87.428,89.484,91.16A1.6,1.6,0,0,0,91.4,89.017ZM21.039,32.153A28.961,28.961,0,1,1,50,61.114,28.994,28.994,0,0,1,21.039,32.153Z"/>
      <path id="Trazado_6" data-name="Trazado 6" d="M68.438,26.162a1.6,1.6,0,0,0-1.254-1.081l-10.738-1.8-5.032-9.655a1.6,1.6,0,0,0-2.83,0l-5.032,9.655-10.737,1.8a1.6,1.6,0,0,0-.875,2.692l7.628,7.769-1.6,10.769a1.6,1.6,0,0,0,2.29,1.664L50,43.121l9.746,4.854a1.6,1.6,0,0,0,2.29-1.663l-1.6-10.769,7.628-7.769a1.6,1.6,0,0,0,.379-1.611ZM57.6,33.873a1.6,1.6,0,0,0-.44,1.353l1.27,8.526L50.711,39.91a1.595,1.595,0,0,0-1.423,0l-7.717,3.843,1.27-8.526a1.6,1.6,0,0,0-.44-1.353l-6.039-6.151,8.5-1.427a1.6,1.6,0,0,0,1.151-.836L50,17.814l3.984,7.645a1.6,1.6,0,0,0,1.151.836l8.5,1.427L57.6,33.873Z"/>
      <path id="Trazado_7" data-name="Trazado 7" d="M74.173,33.763a1.6,1.6,0,0,0-1.791,1.372,22.579,22.579,0,1,1,0-5.964,1.6,1.6,0,1,0,3.164-.419,25.769,25.769,0,1,0,0,6.8A1.6,1.6,0,0,0,74.173,33.763Z"/>
    </g>
  </g>
</svg>
