<svg xmlns="http://www.w3.org/2000/svg" xmlns:xlink="http://www.w3.org/1999/xlink" width="50" height="50" viewBox="0 0 50 50">
  <defs>
    <clipPath id="clip-path">
      <rect id="Rectángulo_3" data-name="Rectángulo 3" width="50" height="50" transform="translate(353 206)" fill="#fff" stroke="#707070" stroke-width="1"/>
    </clipPath>
  </defs>
  <g id="services" transform="translate(-353 -206)" clip-path="url(#clip-path)">
    <g id="surface1" transform="translate(352.989 206)">
      <path id="Trazado_7" data-name="Trazado 7" d="M6.582,8.935A.893.893,0,0,1,7,9.169L19.726,21.9l2.3-2.3L9.3,6.866a.894.894,0,0,1-.234-.414l-.8-3.194L2.951.221l-2.6,2.6L3.388,8.137Zm0,0" fill="#fff"/>
      <path id="Trazado_8" data-name="Trazado 8" d="M17.9,37.975l20.2-20.2a.891.891,0,0,1,.846-.235,8.861,8.861,0,0,0,11.06-8.63c0-.167,0-.336-.016-.506l-4.7,4.7a.89.89,0,0,1-.911.215L39.04,11.534a.889.889,0,0,1-.564-.563L36.7,5.627a.889.889,0,0,1,.215-.911l4.7-4.7a8.864,8.864,0,0,0-9.137,11.045.89.89,0,0,1-.234.846l-20.2,20.2a.9.9,0,0,1-.846.235,8.775,8.775,0,0,0-2.153-.277,8.967,8.967,0,1,0,8.63,6.754A.892.892,0,0,1,17.9,37.975Zm-6.7,6.562H6.87L4.732,40.974,6.87,37.41h4.335l2.138,3.563Zm3.438-10.428,19.6-19.6L35.5,15.773l-19.6,19.6Zm0,0" fill="#fff"/>
      <path id="Trazado_9" data-name="Trazado 9" d="M42.707,49.535a5.4,5.4,0,0,0,6.956-6.956Zm0,0" fill="#fff"/>
      <path id="Trazado_10" data-name="Trazado 10" d="M48.426,40.65l-10-10.008A2.78,2.78,0,0,1,34.5,26.728l-1.417-1.418-7.648,7.648,1.425,1.425A2.78,2.78,0,0,1,30.783,38.3l10,10c.109.109.224.21.341.308l7.616-7.616C48.637,40.873,48.536,40.758,48.426,40.65Zm-5.281,3.626-8.907-8.907L35.5,34.109,44.4,43.016Zm0,0" fill="#fff"/>
    </g>
  </g>
</svg>
