<svg id="Layer_1" height="512" viewBox="0 0 128 128" width="512" xmlns="http://www.w3.org/2000/svg" data-name="Layer 1"><path d="m113 102.479h-5.654a13.409 13.409 0 0 0 4.435-9.955v-36.2a22.622 22.622 0 0 0 -22.595-22.6v-13.153a1.75 1.75 0 0 0 -1.75-1.75h-3.075v-3.821a1.75 1.75 0 0 0 -3.5 0v3.821h-3.075a1.75 1.75 0 0 0 -1.75 1.75v13.156h-26.149v-2.014a1.75 1.75 0 0 0 -1.75-1.75h-11v-4.057a1.75 1.75 0 0 0 -3.5 0v4.057h-11a1.75 1.75 0 0 0 -1.75 1.75v38.671a1.75 1.75 0 0 0 1.75 1.75h4.913v4.118a1.75 1.75 0 0 0 1.75 1.748h4.34v3.71a1.75 1.75 0 0 0 3.5 0v-3.71h4.34a1.75 1.75 0 0 0 1.75-1.75v-4.116h4.906a1.75 1.75 0 0 0 1.75-1.75v-7.178h30.544a8.173 8.173 0 0 1 8.164 8.164v14.212h-70.625a1.75 1.75 0 0 0 -1.75 1.75v5.192a13.432 13.432 0 0 0 4.406 9.955h-5.625a1.75 1.75 0 0 0 0 3.5h11.572v7.021a1.75 1.75 0 0 0 1.75 1.75h37.223a1.75 1.75 0 0 0 1.75-1.75v-7.021h45.705a1.75 1.75 0 0 0 0-3.5zm-33.464-80.158h6.15v11.406h-6.15zm-42.71 46.313h-2.873v-25.469a1.064 1.064 0 0 1 1.063-1.065h.748a1.064 1.064 0 0 1 1.063 1.063zm2.9 5.868h-8.676v-2.368h8.68zm6.656-5.868h-6.056v-25.469a4.568 4.568 0 0 0 -4.562-4.565h-.748a4.568 4.568 0 0 0 -4.562 4.563v25.471h-6.061v-35.171h21.994zm-16.31 35.508c0-.052 0-.1 0-.155v-2.071h33.723v2.524h-33.723zm33.723-5.726h-33.723v-9.334h33.723zm-44.076-5.892v-3.442h6.854v12.9a9.946 9.946 0 0 1 -6.854-9.458zm10.353 18.726v-3.31h33.723v3.31zm37.223-22.168h23.049a1.75 1.75 0 0 0 1.75-1.75v-15.962a11.677 11.677 0 0 0 -11.664-11.664h-30.543v-22.479h39.3a19.117 19.117 0 0 1 19.1 19.1v36.2a9.966 9.966 0 0 1 -9.955 9.955h-31.037z"/><path d="m101.225 50.987a7.769 7.769 0 1 0 -7.77 7.77 7.778 7.778 0 0 0 7.77-7.77zm-7.77 4.27a4.27 4.27 0 1 1 4.27-4.27 4.274 4.274 0 0 1 -4.27 4.27z"/></svg>