<svg xmlns="http://www.w3.org/2000/svg" xmlns:xlink="http://www.w3.org/1999/xlink" width="50" height="50" viewBox="0 0 50 50">
  <defs>
    <clipPath id="clip-path">
      <rect id="Rectángulo_2" data-name="Rectángulo 2" width="50" height="50" transform="translate(273 206)" fill="#fff" stroke="#707070" stroke-width="1"/>
    </clipPath>
  </defs>
  <g id="we-icon" transform="translate(-273 -206)" clip-path="url(#clip-path)">
    <g id="_002-teamwork" data-name="002-teamwork" transform="translate(273 206)">
      <g id="Grupo_3" data-name="Grupo 3">
        <g id="Grupo_2" data-name="Grupo 2">
          <circle id="Elipse_1" data-name="Elipse 1" cx="6.25" cy="6.25" r="6.25" transform="translate(18.75 0)" fill="#fff"/>
        </g>
      </g>
      <g id="Grupo_5" data-name="Grupo 5">
        <g id="Grupo_4" data-name="Grupo 4">
          <path id="Trazado_3" data-name="Trazado 3" d="M34.362,29.487l-1.419-11.05a3.113,3.113,0,0,0-3.106-2.812H28.124a1.574,1.574,0,0,0-1.106.456L25,18.1l-2.019-2.019a1.574,1.574,0,0,0-1.106-.456H20.165A3.106,3.106,0,0,0,17.059,18.4L15.637,29.491a1.565,1.565,0,0,0,1.55,1.759h1.687l1.306,15.937A3.114,3.114,0,0,0,23.29,50h3.422a3.124,3.124,0,0,0,3.112-2.841l1.3-15.909h1.684a1.558,1.558,0,0,0,1.172-.531A1.539,1.539,0,0,0,34.362,29.487Z" fill="#fff"/>
        </g>
      </g>
      <g id="Grupo_7" data-name="Grupo 7">
        <g id="Grupo_6" data-name="Grupo 6">
          <circle id="Elipse_2" data-name="Elipse 2" cx="6.25" cy="6.25" r="6.25" transform="translate(34.374 0)" fill="#fff"/>
        </g>
      </g>
      <g id="Grupo_9" data-name="Grupo 9">
        <g id="Grupo_8" data-name="Grupo 8">
          <path id="Trazado_4" data-name="Trazado 4" d="M9.375,0a6.25,6.25,0,1,0,6.25,6.25A6.256,6.256,0,0,0,9.375,0Z" fill="#fff"/>
        </g>
      </g>
      <g id="Grupo_11" data-name="Grupo 11">
        <g id="Grupo_10" data-name="Grupo 10">
          <path id="Trazado_5" data-name="Trazado 5" d="M49.986,29.487,48.568,18.441a3.111,3.111,0,0,0-3.106-2.816H43.749a1.574,1.574,0,0,0-1.106.456L40.624,18.1l-2.019-2.019a1.572,1.572,0,0,0-1.1-.456H35.79a2.978,2.978,0,0,0-.553.1,6.082,6.082,0,0,1,.812,2.35l1.416,11.012A4.676,4.676,0,0,1,36.321,32.8a4.53,4.53,0,0,1-1.55,1.1l1.037,10.165a3.114,3.114,0,0,0,3.109,2.812H42.34a3.124,3.124,0,0,0,3.112-2.841l1.3-12.784h1.684a1.558,1.558,0,0,0,1.172-.531A1.539,1.539,0,0,0,49.986,29.487Z" fill="#fff"/>
        </g>
      </g>
      <g id="Grupo_13" data-name="Grupo 13">
        <g id="Grupo_12" data-name="Grupo 12">
          <path id="Trazado_6" data-name="Trazado 6" d="M13.668,32.781A4.68,4.68,0,0,1,12.537,29.1L13.959,18a5.777,5.777,0,0,1,.778-2.275,2.94,2.94,0,0,0-.525-.1H12.5a1.574,1.574,0,0,0-1.106.456L9.375,18.1,7.356,16.081a1.572,1.572,0,0,0-1.1-.456H4.54A3.106,3.106,0,0,0,1.434,18.4L.012,29.491a1.565,1.565,0,0,0,1.55,1.759H3.25L4.556,44.062a3.114,3.114,0,0,0,3.109,2.812h3.422A3.124,3.124,0,0,0,14.2,44.034l1.037-10.14A4.686,4.686,0,0,1,13.668,32.781Z" fill="#fff"/>
        </g>
      </g>
    </g>
  </g>
</svg>
