<svg xmlns="http://www.w3.org/2000/svg" width="35" height="35" viewBox="0 0 35 35">
  <g id="whatsapp" transform="translate(0)">
    <path id="Trazado_6" data-name="Trazado 6" d="M17.5,0H17.5A17.489,17.489,0,0,0,3.332,27.757l-2.181,6.5,6.727-2.15A17.5,17.5,0,1,0,17.5,0ZM27.687,24.712c-.422,1.192-2.1,2.181-3.434,2.47-.914.195-2.109.35-6.129-1.317-5.143-2.131-8.455-7.357-8.713-7.7a9.995,9.995,0,0,1-2.078-5.278A5.587,5.587,0,0,1,9.122,8.632,2.543,2.543,0,0,1,10.911,8c.217,0,.411.011.586.02.514.022.772.053,1.111.864.422,1.017,1.45,3.528,1.573,3.787a1.042,1.042,0,0,1,.074.947,3.024,3.024,0,0,1-.567.8c-.258.3-.5.525-.761.844-.236.278-.5.575-.206,1.089a15.533,15.533,0,0,0,2.839,3.528,12.866,12.866,0,0,0,4.1,2.531,1.106,1.106,0,0,0,1.234-.195,21.174,21.174,0,0,0,1.367-1.811.977.977,0,0,1,1.256-.381c.472.164,2.973,1.4,3.487,1.656s.853.381.978.6A4.358,4.358,0,0,1,27.687,24.712Z" transform="translate(0)" fill="#fff"/>
  </g>
</svg>
