<svg xmlns="http://www.w3.org/2000/svg" xmlns:xlink="http://www.w3.org/1999/xlink" width="50" height="50" viewBox="0 0 50 50">
  <defs>
    <clipPath id="clip-path">
      <rect width="50" height="50" fill="none"/>
    </clipPath>
    <clipPath id="clip-path-2">
      <rect id="Rectángulo_1" data-name="Rectángulo 1" width="50" height="50" transform="translate(307 114)" fill="#fff" stroke="#707070" stroke-width="1"/>
    </clipPath>
  </defs>
  <g id="wp-black" clip-path="url(#clip-path)">
    <g transform="translate(-307 -114)">
      <g id="Enmascarar_grupo_1" data-name="Enmascarar grupo 1" clip-path="url(#clip-path-2)">
        <g id="whatsapp" transform="translate(307 114)">
          <g id="Grupo_2" data-name="Grupo 2">
            <path id="Trazado_3" data-name="Trazado 3" d="M25.006,0h-.013A24.984,24.984,0,0,0,4.759,39.653L1.644,48.941l9.609-3.072A25,25,0,1,0,25.006,0ZM39.553,35.3c-.6,1.7-3,3.116-4.906,3.528-1.306.278-3.012.5-8.756-1.881-7.347-3.044-12.078-10.509-12.447-10.994-.353-.484-2.969-3.953-2.969-7.541a7.981,7.981,0,0,1,2.556-6.084,3.632,3.632,0,0,1,2.556-.9c.309,0,.588.016.837.028.734.031,1.1.075,1.588,1.234.6,1.453,2.072,5.041,2.247,5.409a1.488,1.488,0,0,1,.106,1.353,4.32,4.32,0,0,1-.809,1.147c-.369.425-.719.75-1.087,1.206-.337.4-.719.822-.294,1.556a22.19,22.19,0,0,0,4.056,5.041,18.38,18.38,0,0,0,5.863,3.616,1.581,1.581,0,0,0,1.762-.278,30.248,30.248,0,0,0,1.953-2.587,1.4,1.4,0,0,1,1.794-.544c.675.234,4.247,2,4.981,2.366s1.219.544,1.4.853A6.226,6.226,0,0,1,39.553,35.3Z"/>
          </g>
        </g>
      </g>
    </g>
  </g>
</svg>
